<svg width="74" height="64" viewBox="0 0 74 64" fill="none" xmlns="http://www.w3.org/2000/svg">
<path d="M3.94457 0.0216366C2.71772 0.247878 1.61909 1.02657 0.890382 2.1864C0.161669 3.34623 -0.13744 4.7922 0.0588565 6.20621C0.255153 7.62022 0.930775 8.88644 1.93709 9.72632C2.94341 10.5662 4.19799 10.9109 5.42485 10.6847H19.3024L20.1351 13.3505L23.9283 26.6793L27.7215 40.0081C28.0915 41.3943 29.6643 42.6739 30.867 42.6739H63.248C64.5432 42.6739 66.0235 41.3943 66.3936 40.0081L73.8875 13.3505C74.2575 11.9643 73.7024 10.6847 72.4072 10.6847H31.3296L27.814 3.00729C27.4395 2.12609 26.8613 1.38108 26.1431 0.854289C25.4249 0.327501 24.5944 0.0393747 23.7432 0.0216366L5.23981 0.0216366C4.96282 -0.0072122 4.68414 -0.0072122 4.40716 0.0216366C4.22229 0.00882939 4.03692 0.00882939 3.85206 0.0216366L3.94457 0.0216366ZM33.18 53.3369C30.5895 53.3369 28.5541 55.6828 28.5541 58.6685C28.5541 61.6541 30.5895 64 33.18 64C35.7704 64 37.8058 61.6541 37.8058 58.6685C37.8058 55.6828 35.7704 53.3369 33.18 53.3369ZM60.9351 53.3369C58.3446 53.3369 56.3092 55.6828 56.3092 58.6685C56.3092 61.6541 58.3446 64 60.9351 64C63.5255 64 65.5609 61.6541 65.5609 58.6685C65.5609 55.6828 63.5255 53.3369 60.9351 53.3369Z" fill="black"></path>
</svg>
